<svg xmlns="http://www.w3.org/2000/svg" data-name="Layer 3" viewBox="0 0 64 64"><rect width="34.001" height="25" x="27.999" y="37" fill="#c9a697"/><path fill="#dbbaad" d="M32,37A25,25,0,0,0,57,62h5V37Z"/><rect width="25.999" height="13" x="2" y="49" fill="#dbbaad"/><path fill="#d39e35" d="M49,7H47a2,2,0,1,1-2-2V3a3.992,3.992,0,0,0-1,7.858V19h2V10.858A4,4,0,0,0,49,7Z"/><rect width="6" height="25" x="5" y="24" fill="#b08c78"/><path fill="#b08c78" d="M11,20l1.249-1.249A5.979,5.979,0,0,0,14,14.524h0a5.976,5.976,0,0,0-.73-2.862L8,2,2.73,11.662A5.976,5.976,0,0,0,2,14.524H2a5.979,5.979,0,0,0,1.751,4.227L5,20Z"/><rect width="10" height="4" x="3" y="20" fill="#1c687a"/><path fill="#b08c78" d="M20,38l.649-.649A4.612,4.612,0,0,0,22,34.089h0a4.615,4.615,0,0,0-.487-2.063L19,27l-2.513,5.026A4.615,4.615,0,0,0,16,34.089h0a4.612,4.612,0,0,0,1.351,3.262L18,38Z"/><rect width="6" height="4" x="16" y="38" fill="#1c687a"/><rect width="4" height="7" x="17" y="42" fill="#b08c78"/><path fill="#327f87" d="M40 62V55.657A13.658 13.658 0 0036 46h0a13.658 13.658 0 00-4 9.657V62zM58 62V55.657A13.658 13.658 0 0054 46h0a13.658 13.658 0 00-4 9.657V62zM48 47V45.606A6.737 6.737 0 0045 40h0a6.737 6.737 0 00-3 5.606V47z"/><path fill="#b08c78" d="M54,37l2.477-2.477A8.612,8.612,0,0,0,59,28.432h0a8.61,8.61,0,0,0-3.607-7.008L45,14,34.607,21.424A8.61,8.61,0,0,0,31,28.432h0a8.612,8.612,0,0,0,2.523,6.091L36,37Z"/><path fill="#bc9684" d="M14 14.524h0a5.976 5.976 0 00-.73-2.862l-3.27-6-3.27 6A5.976 5.976 0 006 14.524H6a5.979 5.979 0 001.751 4.227L9 20h2l1.249-1.249A5.979 5.979 0 0014 14.524zM22 34.089a4.618 4.618 0 00-.487-2.063L20 29l-1.513 3.026a4.613 4.613 0 00.864 5.325L20 38l.649-.649A4.612 4.612 0 0022 34.089z"/><rect width="3" height="25" x="8" y="24" fill="#bc9684"/><rect width="2" height="7" x="19" y="42" fill="#bc9684"/><path fill="#b08c78" d="M54,37l2.477-2.477A8.612,8.612,0,0,0,59,28.432h0a8.61,8.61,0,0,0-3.607-7.008L45,14,34.607,21.424A8.61,8.61,0,0,0,31,28.432h0a8.612,8.612,0,0,0,2.523,6.091L36,37Z"/><path fill="#bc9684" d="M55.393,21.424l-9.685-6.918A13.98,13.98,0,0,0,42.211,37H54l2.477-2.477a8.613,8.613,0,0,0-1.084-13.1Z"/><path fill="#1c687a" d="M37.5 47.8A13.649 13.649 0 0035 55.657V62h5V55.657A13.649 13.649 0 0037.5 47.8zM55.5 47.8A13.649 13.649 0 0053 55.657V62h5V55.657A13.649 13.649 0 0055.5 47.8zM46 40.833a6.728 6.728 0 00-2 4.773V47h4V45.606A6.728 6.728 0 0046 40.833z"/></svg>