<svg xmlns="http://www.w3.org/2000/svg" data-name="Layer 1" viewBox="0 0 32 32"><rect width="2" height="23" x="28" y="8.5" fill="#fdc475"/><rect width="1" height="23" x="28" y="8.5" fill="#faa827"/><path fill="#e37626" d="M16 11.9894a.49972.49972 0 0 1-.5-.5v-1a.5.5 0 0 1 1 0v1A.49972.49972 0 0 1 16 11.9894zM8.25 17.9894a.49972.49972 0 0 1-.5-.5v-1a.5.5 0 0 1 1 0v1A.49972.49972 0 0 1 8.25 17.9894zM23.75 17.9894a.49972.49972 0 0 1-.5-.5v-1a.5.5 0 0 1 1 0v1A.49972.49972 0 0 1 23.75 17.9894zM29 6a.49971.49971 0 0 1-.5-.5v-1a.5.5 0 0 1 1 0v1A.49971.49971 0 0 1 29 6zM3 6a.49971.49971 0 0 1-.5-.5v-1a.5.5 0 0 1 1 0v1A.49971.49971 0 0 1 3 6z"/><rect width="7" height="15" x="12.5" y="16.5" fill="#fdc475"/><rect width="1" height="15" x="12.5" y="16.5" fill="#faa827"/><path fill="#ffdaa7" d="M19.5,31.5h-7v-8.36A4.82573,4.82573,0,0,1,16,18.5h0a4.82573,4.82573,0,0,1,3.5,4.64Z"/><path fill="#faa827" d="M16.5,18.68854A4.78176,4.78176,0,0,0,16,18.5a4.8257,4.8257,0,0,0-3.5,4.64V31.5h1V23.14A4.81538,4.81538,0,0,1,16.5,18.68854Z"/><rect width="8.5" height="9" x="19.5" y="22.5" fill="#fdc475"/><rect width="1" height="9" x="19.5" y="22.5" fill="#faa827"/><rect width="8.5" height="9" x="4" y="22.5" fill="#fdc475"/><rect width="1" height="9" x="4" y="22.5" fill="#faa827"/><path fill="#f7991d" d="M19.5,16.5h-7l-.59244-2.36978a2,2,0,0,1,1.128-2.31269L16,10.5l2.96444,1.31753a2,2,0,0,1,1.128,2.31269Z"/><path fill="#e37626" d="M14.03558,11.8175,16.5,10.72223,16,10.5l-2.96442,1.3175a2.00011,2.00011,0,0,0-1.128,2.31269L12.5,16.5h1l-.59247-2.36981A2.00011,2.00011,0,0,1,14.03558,11.8175Z"/><path fill="#f7991d" d="M28,22.5H19.5V20.40382a3,3,0,0,1,1.72261-2.71446L23.75,16.5l2.52739,1.18936A3,3,0,0,1,28,20.40382Z"/><path fill="#e37626" d="M22.2226,17.68933l2.0274-.954L23.75,16.5l-2.5274,1.18933A3,3,0,0,0,19.5,20.40381V22.5h1V20.40381A3,3,0,0,1,22.2226,17.68933Z"/><path fill="#f7991d" d="M12.5,22.5H4V20.40382a3,3,0,0,1,1.72261-2.71446L8.25,16.5l2.52739,1.18936A3,3,0,0,1,12.5,20.40382Z"/><path fill="#e37626" d="M6.7226,17.68933l2.0274-.954L8.25,16.5,5.7226,17.68933A3,3,0,0,0,4,20.40381V22.5H5V20.40381A3,3,0,0,1,6.7226,17.68933Z"/><path fill="#ffdaa7" d="M26,31.5H21.5V26.79975a2,2,0,0,1,1.18772-1.82763L23.75,24.5l1.06228.47212A2,2,0,0,1,26,26.79975Z"/><path fill="#faa827" d="M23.68774,24.97211l.56226-.24988L23.75,24.5l-1.06226.47211A1.99992,1.99992,0,0,0,21.5,26.79974V31.5h1V26.79974A1.99992,1.99992,0,0,1,23.68774,24.97211Z"/><path fill="#ffdaa7" d="M10.5,31.5H6V26.79975a2,2,0,0,1,1.18772-1.82763L8.25,24.5l1.06228.47212A2,2,0,0,1,10.5,26.79975Z"/><path fill="#faa827" d="M8.18774,24.97211,8.75,24.72223,8.25,24.5l-1.06226.47211A1.99992,1.99992,0,0,0,6,26.79974V31.5H7V26.79974A1.99992,1.99992,0,0,1,8.18774,24.97211Z"/><path fill="#f7991d" d="M30.5,8.5h-3l-.63847-1.27693A1,1,0,0,1,27.13127,5.995L29,4.5l1.86873,1.495a1,1,0,0,1,.26974,1.22808Z"/><path fill="#e37626" d="M28.13129,5.995,29.5,4.9,29,4.5,27.13129,5.995a1,1,0,0,0-.26978,1.22808L27.5,8.5h1l-.63849-1.27692A1,1,0,0,1,28.13129,5.995Z"/><path fill="#f7991d" d="M31.5,9h-5a.5.5,0,0,1,0-1h5a.5.5,0,0,1,0,1Z"/><path fill="#e37626" d="M27,8.5a.49971.49971,0,0,1,.5-.5h-1a.5.5,0,0,0,0,1h1A.49971.49971,0,0,1,27,8.5Z"/><path fill="#f7991d" d="M4.5,8.5h-3L.86153,7.22307A1,1,0,0,1,1.13127,5.995L3,4.5,4.86873,5.995a1,1,0,0,1,.26974,1.22808Z"/><path fill="#e37626" d="M2.13129,5.995,3.5,4.9,3,4.5,1.13129,5.995A1,1,0,0,0,.86151,7.22308L1.5,8.5h1L1.86151,7.22308A1,1,0,0,1,2.13129,5.995Z"/><rect width="2" height="23" x="2" y="8.5" fill="#fdc475"/><rect width="1" height="23" x="2" y="8.5" fill="#faa827"/><path fill="#e0e0e2" d="M19.433,4.22821A3.491,3.491,0,0,1,19.58993.5,3.49535,3.49535,0,1,0,21.616,7.0093,3.46691,3.46691,0,0,0,22.7402,5.95643,3.491,3.491,0,0,1,19.433,4.22821Z"/><path fill="#d9d8da" d="M17.835,5.72821A3.50006,3.50006,0,0,1,19.116.94708c.09082-.05243.188-.07776.28125-.12048A3.54649,3.54649,0,0,1,19.5899.5a3.4913,3.4913,0,1,0,.80152,6.93127A3.48047,3.48047,0,0,1,17.835,5.72821Z"/><path fill="#f7991d" d="M5.5,9H.5a.5.5,0,0,1,0-1h5a.5.5,0,0,1,0,1Z"/><path fill="#e37626" d="M1,8.5A.49971.49971,0,0,1,1.5,8H.5a.5.5,0,0,0,0,1h1A.49971.49971,0,0,1,1,8.5Z"/></svg>