<svg xmlns="http://www.w3.org/2000/svg" enable-background="new 0 0 135 135" viewBox="0 0 135 135"><rect width="128" height="3.16" x="3.5" y="95.458" fill="#7a8490"/><rect width="1.136" height="6.757" x="21.69" y="44.636" fill="#fc9"/><rect width="1.136" height="6.757" x="18.027" y="44.636" fill="#fc9"/><rect width="1.136" height="6.757" x="14.363" y="44.636" fill="#fc9"/><rect width="1.136" height="6.757" x="10.7" y="44.636" fill="#fc9"/><path fill="#9e5c30" d="M22.5842056,44.3307991c-0.1261215-3.1167488-2.6737556-5.6100502-5.8213978-5.6100502
						c-3.1477413,0-5.6953754,2.4933014-5.821497,5.6100502H22.5842056z"/><rect width="12.126" height="1.136" x="10.7" y="44.068" fill="#fc9"/><path fill="#f2bc8b" d="M22.8257637,51.7390404l-0.0000019,0.0000038
						c-1.0247364,2.0290184-1.5586052,4.2703514-1.5586052,6.543457v37.175499h-9.0087957v-37.175499
						c0-2.2731056-0.5338697-4.5144386-1.5586061-6.543457l-0.000001-0.0000038H22.8257637z"/><rect width="3.042" height="1.808" x="13.163" y="92.434" fill="#fc9"/><rect width="3.042" height="1.808" x="17.319" y="92.434" fill="#fc9"/><rect width="3.042" height="1.808" x="13.163" y="89.415" fill="#fc9"/><rect width="3.042" height="1.808" x="17.319" y="89.415" fill="#fc9"/><rect width="3.042" height="1.808" x="13.163" y="86.396" fill="#fc9"/><rect width="3.042" height="1.808" x="17.319" y="86.396" fill="#fc9"/><rect width="3.042" height="1.808" x="13.163" y="83.377" fill="#fc9"/><rect width="3.042" height="1.808" x="17.319" y="83.377" fill="#fc9"/><rect width="3.042" height="1.808" x="13.163" y="80.358" fill="#fc9"/><rect width="3.042" height="1.808" x="17.319" y="80.358" fill="#fc9"/><rect width="3.042" height="1.808" x="13.163" y="77.339" fill="#fc9"/><rect width="3.042" height="1.808" x="17.319" y="77.339" fill="#fc9"/><rect width="3.042" height="1.808" x="13.163" y="74.32" fill="#fc9"/><rect width="3.042" height="1.808" x="17.319" y="74.32" fill="#fc9"/><rect width="9.009" height=".701" x="12.258" y="72.983" fill="#9e5c30"/><rect width="9.009" height=".701" x="12.258" y="72.983" fill="#9e5c30"/><rect width="9.009" height=".701" x="12.258" y="64.853" fill="#9e5c30"/><rect width="9.009" height=".701" x="12.258" y="58.273" fill="#9e5c30"/><rect width="12.126" height="1.136" x="10.7" y="50.604" fill="#fc9"/><path fill="#9e5c30" d="M17.7397633,38.7106094c0,0.5396118-0.4467049,0.9676933-0.9863186,0.9676933
						c-0.5396118,0-0.9676914-0.4280815-0.9676914-0.9676933s0.4280796-0.9862061,0.9676914-0.9862061
						C17.2930584,37.7244034,17.7397633,38.1709976,17.7397633,38.7106094z"/><rect width=".714" height="2.047" x="16.406" y="36.382" fill="#9e5c30"/><path fill="#9e5c30" d="M26.1759453,69.1336899c0.2259274-5.5831566,4.7896004-10.0495033,10.428093-10.0495033
						c5.6386681,0,10.202343,4.4663467,10.4282722,10.0495033v2.89711H26.1759453V69.1336899z"/><path fill="#9e5c30" d="M34.853981,59.0660248c0,0.9666328,0.8002014,1.7334633,1.7668304,1.7334633
						s1.7334633-0.7668304,1.7334633-1.7334633c0-0.966629-0.7668343-1.7666245-1.7334633-1.7666245
						S34.853981,58.0993958,34.853981,59.0660248z"/><rect width="1.278" height="3.667" x="35.965" y="54.894" fill="#9e5c30"/><path fill="#f2bc8b" d="M29.5887127 68.728035v2.6437454h-4.3521938V68.728035c.0261383-.487442.4091339-.9400864.8530655-1.2969437-.1218739-.2089005-.1915226-.4526443-.1915226-.713768 0-.83564 1.514555-1.5145569 1.514555-1.5145569s1.5146084.6789169 1.5146084 1.5145569c0 .2611237-.0696507.5048676-.1915245.713768C29.1796322 67.7879486 29.5626278 68.240593 29.5887127 68.728035zM35.7208328 68.728035v2.6437454H31.368639V68.728035c.0261383-.487442.4091339-.9400864.8530674-1.2969437-.1218758-.2089005-.1915245-.4526443-.1915245-.713768 0-.83564 1.5145531-1.5145569 1.5145531-1.5145569s1.5146103.6789169 1.5146103 1.5145569c0 .2611237-.0696487.5048676-.1915245.713768C35.3117523 67.7879486 35.6947479 68.240593 35.7208328 68.728035zM41.8529549 68.728035v2.6437454h-4.3521957V68.728035c.0261383-.487442.4091339-.9400864.8530655-1.2969437-.1218719-.2089005-.1915207-.4526443-.1915207-.713768 0-.83564 1.5145531-1.5145569 1.5145531-1.5145569s1.5146103.6789169 1.5146103 1.5145569c0 .2611237-.0696526.5048676-.1915245.713768C41.4438744 67.7879486 41.82687 68.240593 41.8529549 68.728035zM47.9850731 68.728035v2.6437454h-4.3521919V68.728035c.0261383-.487442.4091339-.9400864.8530655-1.2969437-.1218758-.2089005-.1915245-.4526443-.1915245-.713768 0-.83564 1.5145569-1.5145569 1.5145569-1.5145569s1.5146065.6789169 1.5146065 1.5145569c0 .2611237-.0696487.5048676-.1915245.713768C47.5759926 67.7879486 47.9589882 68.240593 47.9850731 68.728035zM51.9410973 65.2040939v6.1676865h-2.1892815v-2.6365585c.0234222-.4944077.4237175-.9416962.8474388-1.2947159-.1176758-.211937-.1883698-.4708481-.1883698-.7299042C50.4108849 65.8867264 51.9410973 65.2040939 51.9410973 65.2040939z"/><path fill="#2c2c34" d="M50.8814583,65.8858871c0.4500084-0.4086761,1.059639-0.6821594,1.059639-0.6821594v6.1680527h-1.059639
							V65.8858871z" opacity=".08"/><path fill="#f2bc8b" d="M21.2673111,65.2040939v6.1676865h2.1892815v-2.6365585
							c-0.0234203-0.4944077-0.4237175-0.9416962-0.847435-1.2947159c0.1176739-0.211937,0.1883659-0.4708481,0.1883659-0.7299042
							C22.7975235,65.8867264,21.2673111,65.2040939,21.2673111,65.2040939z"/><path fill="#2c2c34" d="M22.3269444,65.8861313c-0.4500084-0.4086685-1.059639-0.6821594-1.059639-0.6821594v6.1680603h1.059639
							V65.8861313z" opacity=".08"/><rect width="30.657" height="22.83" x="21.265" y="72.626" fill="#f2bc8b"/><rect width="30.65" height="1.061" x="21.267" y="72.623" fill="#2c2c34" opacity=".08"/><rect width="5.316" height="3.292" x="25.163" y="78.243" fill="#fc9"/><rect width="5.316" height="3.292" x="33.935" y="78.243" fill="#fc9"/><rect width="5.316" height="3.292" x="42.706" y="78.243" fill="#fc9"/><rect width="30.65" height="1.705" x="21.267" y="70.919" fill="#fc9"/><rect width="30.65" height=".717" x="21.267" y="76.487" fill="#fc9"/><rect width="30.65" height=".717" x="21.267" y="82.66" fill="#fc9"/><path fill="#44433f" d="M31.331892 88.6879501v6.77005h-7.0223446v-6.77005c0-1.9341583 3.4902534-3.4902573 3.4902534-3.4902573S31.331892 86.7537918 31.331892 88.6879501zM40.1035957 88.6879501v6.77005h-7.0223465v-6.77005c0-1.9341583 3.4902573-3.4902573 3.4902573-3.4902573S40.1035957 86.7537918 40.1035957 88.6879501zM48.8752975 88.6879501v6.77005h-7.0223427v-6.77005c0-1.9341583 3.4902534-3.4902573 3.4902534-3.4902573S48.8752975 86.7537918 48.8752975 88.6879501z"/><path fill="#fc9" d="M31.5588551 95.4579391h-.453083v-6.7696915c0-1.6008301-2.7618561-2.9839706-3.3052025-3.2406006-.5389194.2584-3.2644939 1.6424255-3.2644939 3.2406006v6.7696915h-.453083v-6.7696915c0-2.057457 3.4768772-3.6308517 3.6246605-3.6972275l.0911484-.0407028.0920315.0407028c.1495533.0654907 3.6680222 1.6388855 3.6680222 3.6972275V95.4579391zM40.3302498 95.4579391h-.453083v-6.7696915c0-1.6008301-2.7618561-2.9839706-3.3052025-3.2406006-.5389214.2584-3.2644958 1.6424255-3.2644958 3.2406006v6.7696915h-.453083v-6.7696915c0-2.057457 3.4768791-3.6308517 3.6246605-3.6972275l.0911484-.0407028.0920334.0407028c.1495514.0654907 3.6680222 1.6388855 3.6680222 3.6972275V95.4579391zM49.1016426 95.4579391h-.453083v-6.7696915c0-1.6008301-2.7609711-2.9839706-3.3043175-3.2406006-.5389175.2584-3.264492 1.6424255-3.264492 3.2406006v6.7696915h-.453083v-6.7696915c0-2.057457 3.4768753-3.6308517 3.6246605-3.6972275l.0911446-.0407028.0920334.0407028c.1495514.0654907 3.6671371 1.6388855 3.6671371 3.6972275V95.4579391z"/><rect width="1.095" height="24.539" x="21.267" y="70.919" fill="#2c2c34" opacity=".08"/><rect width="1.095" height="24.539" x="50.823" y="70.919" fill="#2c2c34" opacity=".08"/><g><path fill="#9e5c30" d="M83.6145782,46.9153938c-0.0468521-1.1577682-0.9932098-2.0839462-2.1624603-2.0839462
							c-1.169281,0-2.1156387,0.926178-2.1624908,2.0839462H83.6145782z"/><path fill="#9e5c30" d="M81.8150253,44.8276825c0,0.2004471-0.1659317,0.3594627-0.3663788,0.3594627
							c-0.2004547,0-0.3594666-0.1590157-0.3594666-0.3594627s0.1590118-0.3663445,0.3594666-0.3663445
							C81.6490936,44.461338,81.8150253,44.6272354,81.8150253,44.8276825z"/><rect width=".265" height=".76" x="81.32" y="43.963" fill="#9e5c30"/><path fill="#9e5c30" d="M55.7103691,46.9153938c-0.0468483-1.1577682-0.9932098-2.0839462-2.1624527-2.0839462
							c-1.169281,0-2.1156425,0.926178-2.1624908,2.0839462H55.7103691z"/><path fill="#9e5c30" d="M53.9108238,44.8276825c0,0.2004471-0.1659393,0.3594627-0.3663864,0.3594627
							s-0.3594666-0.1590157-0.3594666-0.3594627s0.1590195-0.3663445,0.3594666-0.3663445
							S53.9108238,44.6272354,53.9108238,44.8276825z"/><rect width=".265" height=".76" x="53.415" y="43.963" fill="#9e5c30"/><path fill="#9e5c30" d="M57.6949768,58.6860008c0.214447-5.2994881,4.5462532-9.5389099,9.8982697-9.5389099
							c5.3521805,0,9.6839828,4.2394218,9.8984299,9.5389099v2.7499123H57.6949768V58.6860008z"/><path fill="#9e5c30" d="M65.9320984,49.1298523c0,0.9175186,0.7595444,1.6453896,1.677063,1.6453896
							s1.6453934-0.7278709,1.6453934-1.6453896c0-0.9175148-0.7278748-1.6768684-1.6453934-1.6768684
							S65.9320984,48.2123375,65.9320984,49.1298523z"/><rect width="1.213" height="3.48" x="66.987" y="45.17" fill="#9e5c30"/><path fill="#f2bc8b" d="M55.8001022,49.6673088h-0.0000038c-0.3806534,0.7537117-0.578968,1.5862923-0.578968,2.4306755
						v43.3600159h-3.3464661V52.0979843c0-0.8443832-0.1983147-1.6769638-0.578968-2.4306755h-0.0000038H55.8001022z"/><rect width=".422" height="2.51" x="55.378" y="47.029" fill="#fc9"/><rect width=".422" height="2.51" x="54.017" y="47.029" fill="#fc9"/><rect width=".422" height="2.51" x="52.657" y="47.029" fill="#fc9"/><rect width=".422" height="2.51" x="51.296" y="47.029" fill="#fc9"/><rect width="4.504" height=".422" x="51.296" y="46.818" fill="#fc9"/><rect width="4.504" height=".422" x="51.296" y="49.246" fill="#fc9"/><path fill="#f2bc8b" d="M83.7043076,49.6673088L83.7043076,49.6673088
						c-0.380661,0.7537117-0.5789719,1.5862923-0.5789719,2.4306755v43.3600159h-3.3464661V52.0979843
						c0-0.8443832-0.1983109-1.6769638-0.5789719-2.4306755l0,0H83.7043076z"/><rect width=".422" height="2.51" x="83.283" y="47.029" fill="#fc9"/><rect width=".422" height="2.51" x="81.922" y="47.029" fill="#fc9"/><rect width=".422" height="2.51" x="80.561" y="47.029" fill="#fc9"/><rect width=".422" height="2.51" x="79.2" y="47.029" fill="#fc9"/><rect width="4.504" height=".422" x="79.2" y="46.818" fill="#fc9"/><rect width="4.504" height=".422" x="79.2" y="49.246" fill="#fc9"/><rect width="24.572" height="34.016" x="55.213" y="61.436" fill="#f2bc8b"/><polygon fill="#dda272" points="77.478 95.452 76.945 95.452 76.945 66.633 58.052 66.633 58.052 95.452 57.52 95.452 57.52 66.101 77.478 66.101"/><rect width="24.572" height="1.109" x="55.213" y="62.908" fill="#2c2c34" opacity=".08"/><path fill="#f2bc8b" d="M60.9280205 58.9264908v2.5094223h-4.1310692v-2.5094223c.0248108-.462677.3883438-.8923264.8097229-1.2310524-.1156845-.1982841-.1817932-.4296455-.1817932-.6775017 0-.7931824 1.437603-1.437603 1.437603-1.437603s1.4376564.6444206 1.4376564 1.437603c0 .2478561-.0661125.4792175-.1817932.6775017C60.5397224 58.0341644 60.9032593 58.4638138 60.9280205 58.9264908zM66.7485809 58.9264908v2.5094223h-4.1310692v-2.5094223c.0248108-.462677.3883476-.8923264.8097229-1.2310524-.1156807-.1982841-.1817932-.4296455-.1817932-.6775017 0-.7931824 1.437603-1.437603 1.437603-1.437603s1.4376526.6444206 1.4376526 1.437603c0 .2478561-.0661087.4792175-.1817932.6775017C66.3602829 58.0341644 66.7238235 58.4638138 66.7485809 58.9264908zM72.5691452 58.9264908v2.5094223h-4.131073v-2.5094223c.0248108-.462677.3883514-.8923264.8097229-1.2310524-.1156769-.1982841-.1817932-.4296455-.1817932-.6775017 0-.7931824 1.4376068-1.437603 1.4376068-1.437603s1.4376526.6444206 1.4376526 1.437603c0 .2478561-.0661087.4792175-.1817932.6775017C72.1808472 58.0341644 72.5443802 58.4638138 72.5691452 58.9264908zM78.3897018 58.9264908v2.5094223h-4.1310654v-2.5094223c.0248108-.462677.3883438-.8923264.8097229-1.2310524-.1156845-.1982841-.1817932-.4296455-.1817932-.6775017 0-.7931824 1.4376068-1.437603 1.4376068-1.437603s1.4376526.6444206 1.4376526 1.437603c0 .2478561-.0661087.4792175-.1817932.6775017C78.0014114 58.0341644 78.3649445 58.4638138 78.3897018 58.9264908z"/><rect width="24.572" height="1.472" x="55.213" y="61.436" fill="#fc9"/><g><path fill="#dda272" d="M75.1447144,80.3572693v15.1007309h-15.663475V80.3572693c0-4.3141708,7.78508-7.78508,7.78508-7.78508
							S75.1447144,76.0430984,75.1447144,80.3572693z"/></g><g><path fill="#44433f" d="M71.3170624,87.7375412v7.720459h-8.0081711v-7.720459
							c0-2.2056808,3.9802322-3.9802399,3.9802322-3.9802399S71.3170624,85.5318604,71.3170624,87.7375412z"/></g><rect width="1.004" height="34.016" x="55.213" y="61.436" fill="#2c2c34" opacity=".08"/><rect width="1.004" height="34.016" x="78.781" y="61.436" fill="#2c2c34" opacity=".08"/><g><path fill="#9e5c30" d="M75.9437637 69.9319763c0 1.1183929-.90522 2.0236053-2.0230942 2.0236053-1.1183929 0-2.0233459-.9052124-2.0233459-2.0236053 0-1.1178741.904953-2.0230942 2.0233459-2.0230942C75.0385437 67.9088821 75.9437637 68.8141022 75.9437637 69.9319763zM63.100235 69.9319763c0 1.1183929-.9052162 2.0236053-2.0230904 2.0236053-1.1183929 0-2.0233498-.9052124-2.0233498-2.0236053 0-1.1178741.9049568-2.0230942 2.0233498-2.0230942C62.1950188 67.9088821 63.100235 68.8141022 63.100235 69.9319763z"/></g></g><g><rect width="1.136" height="6.757" x="112.174" y="44.636" fill="#fc9"/><rect width="1.136" height="6.757" x="115.838" y="44.636" fill="#fc9"/><rect width="1.136" height="6.757" x="119.501" y="44.636" fill="#fc9"/><rect width="1.136" height="6.757" x="123.165" y="44.636" fill="#fc9"/><path fill="#9e5c30" d="M112.4157944,44.3307991c0.1261215-3.1167488,2.6737518-5.6100502,5.8213959-5.6100502
						c3.1477432,0,5.6953812,2.4933014,5.8215027,5.6100502H112.4157944z"/><rect width="12.126" height="1.136" x="112.174" y="44.068" fill="#fc9"/><path fill="#f2bc8b" d="M112.1742401,51.7390404v0.0000038c1.0247345,2.0290184,1.5586014,4.2703514,1.5586014,6.543457
						v37.175499h9.0087967v-37.175499c0-2.2731056,0.5338669-4.5144386,1.558609-6.543457v-0.0000038H112.1742401z"/><rect width="3.042" height="1.808" x="118.794" y="92.434" fill="#fc9"/><rect width="3.042" height="1.808" x="114.638" y="92.434" fill="#fc9"/><rect width="3.042" height="1.808" x="118.794" y="89.415" fill="#fc9"/><rect width="3.042" height="1.808" x="114.638" y="89.415" fill="#fc9"/><rect width="3.042" height="1.808" x="118.794" y="86.396" fill="#fc9"/><rect width="3.042" height="1.808" x="114.638" y="86.396" fill="#fc9"/><rect width="3.042" height="1.808" x="118.794" y="83.377" fill="#fc9"/><rect width="3.042" height="1.808" x="114.638" y="83.377" fill="#fc9"/><rect width="3.042" height="1.808" x="118.794" y="80.358" fill="#fc9"/><rect width="3.042" height="1.808" x="114.638" y="80.358" fill="#fc9"/><rect width="3.042" height="1.808" x="118.794" y="77.339" fill="#fc9"/><rect width="3.042" height="1.808" x="114.638" y="77.339" fill="#fc9"/><rect width="3.042" height="1.808" x="118.794" y="74.32" fill="#fc9"/><rect width="3.042" height="1.808" x="114.638" y="74.32" fill="#fc9"/><rect width="9.009" height=".701" x="113.733" y="72.983" fill="#9e5c30"/><rect width="9.009" height=".701" x="113.733" y="72.983" fill="#9e5c30"/><rect width="9.009" height=".701" x="113.733" y="64.853" fill="#9e5c30"/><rect width="9.009" height=".701" x="113.733" y="58.273" fill="#9e5c30"/><rect width="12.126" height="1.136" x="112.174" y="50.604" fill="#fc9"/><path fill="#9e5c30" d="M117.2602386,38.7106094c0,0.5396118,0.446701,0.9676933,0.9863129,0.9676933
						c0.5396194,0,0.9676971-0.4280815,0.9676971-0.9676933s-0.4280777-0.9862061-0.9676971-0.9862061
						C117.7069397,37.7244034,117.2602386,38.1709976,117.2602386,38.7106094z"/><rect width=".714" height="2.047" x="117.88" y="36.382" fill="#9e5c30"/></g><g><path fill="#9e5c30" d="M108.8240509,69.1336899c-0.2259216-5.5831566-4.7895966-10.0495033-10.428093-10.0495033
						c-5.6386642,0-10.2023392,4.4663467-10.4282684,10.0495033v2.89711h20.8563614V69.1336899z"/><path fill="#9e5c30" d="M100.146019,59.0660248c0,0.9666328-0.8002014,1.7334633-1.7668304,1.7334633
						s-1.7334595-0.7668304-1.7334595-1.7334633c0-0.966629,0.7668304-1.7666245,1.7334595-1.7666245
						S100.146019,58.0993958,100.146019,59.0660248z"/><rect width="1.278" height="3.667" x="97.757" y="54.894" fill="#9e5c30"/></g><g><path fill="#f2bc8b" d="M105.4112854 68.728035v2.6437454h4.3521957V68.728035c-.0261383-.487442-.4091339-.9400864-.8530655-1.2969437.1218719-.2089005.1915207-.4526443.1915207-.713768 0-.83564-1.5145493-1.5145569-1.5145493-1.5145569s-1.5146103.6789169-1.5146103 1.5145569c0 .2611237.0696487.5048676.1915207.713768C105.8203659 67.7879486 105.4373703 68.240593 105.4112854 68.728035zM99.2791672 68.728035v2.6437454h4.3521957V68.728035c-.0261383-.487442-.4091339-.9400864-.8530655-1.2969437.1218719-.2089005.1915207-.4526443.1915207-.713768 0-.83564-1.5145569-1.5145569-1.5145569-1.5145569s-1.5146027.6789169-1.5146027 1.5145569c0 .2611237.0696487.5048676.1915207.713768C99.6882477 67.7879486 99.3052521 68.240593 99.2791672 68.728035zM93.147049 68.728035v2.6437454h4.3521881V68.728035c-.0261383-.487442-.4091339-.9400864-.8530655-1.2969437.1218796-.2089005.1915283-.4526443.1915283-.713768 0-.83564-1.5145569-1.5145569-1.5145569-1.5145569s-1.5146103.6789169-1.5146103 1.5145569c0 .2611237.0696487.5048676.1915283.713768C93.5561295 67.7879486 93.1731339 68.240593 93.147049 68.728035zM87.0149231 68.728035v2.6437454h4.3521957V68.728035c-.0261383-.487442-.4091339-.9400864-.8530655-1.2969437.1218719-.2089005.1915207-.4526443.1915207-.713768 0-.83564-1.5145493-1.5145569-1.5145493-1.5145569s-1.5146103.6789169-1.5146103 1.5145569c0 .2611237.0696487.5048676.1915207.713768C87.4240036 67.7879486 87.041008 68.240593 87.0149231 68.728035zM83.0588989 65.2040939v6.1676865h2.1892853v-2.6365585c-.0234222-.4944077-.4237213-.9416962-.847435-1.2947159.1176758-.211937.1883621-.4708481.1883621-.7299042C84.5891113 65.8867264 83.0588989 65.2040939 83.0588989 65.2040939z"/><path fill="#2c2c34" d="M84.1185379,65.8858871c-0.4500046-0.4086761-1.059639-0.6821594-1.059639-0.6821594v6.1680527h1.059639
							V65.8858871z" opacity=".08"/><path fill="#f2bc8b" d="M113.7326889,65.2040939v6.1676865h-2.1892776v-2.6365585
							c0.0234146-0.4944077,0.4237137-0.9416962,0.847435-1.2947159c-0.1176758-0.211937-0.1883698-0.4708481-0.1883698-0.7299042
							C112.2024765,65.8867264,113.7326889,65.2040939,113.7326889,65.2040939z"/><path fill="#2c2c34" d="M112.6730576,65.8861313c0.4500046-0.4086685,1.059639-0.6821594,1.059639-0.6821594v6.1680603
							h-1.059639V65.8861313z" opacity=".08"/><rect width="30.65" height="22.835" x="83.082" y="72.623" fill="#f2bc8b"/><rect width="30.65" height="1.061" x="83.082" y="72.623" fill="#2c2c34" opacity=".08"/><rect width="5.316" height="3.292" x="104.521" y="78.243" fill="#fc9"/><rect width="5.316" height="3.292" x="95.75" y="78.243" fill="#fc9"/><rect width="5.316" height="3.292" x="86.978" y="78.243" fill="#fc9"/><rect width="30.65" height="1.705" x="83.083" y="70.919" fill="#fc9"/><rect width="30.65" height=".717" x="83.083" y="76.487" fill="#fc9"/><rect width="30.65" height=".717" x="83.083" y="82.66" fill="#fc9"/><path fill="#44433f" d="M103.6681061 88.6879501v6.77005h7.0223465v-6.77005c0-1.9341583-3.4902573-3.4902573-3.4902573-3.4902573S103.6681061 86.7537918 103.6681061 88.6879501zM94.8964081 88.6879501v6.77005h7.0223389v-6.77005c0-1.9341583-3.4902496-3.4902573-3.4902496-3.4902573S94.8964081 86.7537918 94.8964081 88.6879501zM86.1247025 88.6879501v6.77005h7.0223465v-6.77005c0-1.9341583-3.4902573-3.4902573-3.4902573-3.4902573S86.1247025 86.7537918 86.1247025 88.6879501z"/><path fill="#fc9" d="M103.4411469 95.4579391h.4530792v-6.7696915c0-1.6008301 2.7618561-2.9839706 3.3052063-3.2406006.5389175.2584 3.2644958 1.6424255 3.2644958 3.2406006v6.7696915h.4530792v-6.7696915c0-2.057457-3.4768753-3.6308517-3.6246643-3.6972275l-.0911407-.0407028-.0920334.0407028c-.1495514.0654907-3.6680222 1.6388855-3.6680222 3.6972275V95.4579391zM94.669754 95.4579391h.4530792v-6.7696915c0-1.6008301 2.7618561-2.9839706 3.3051987-3.2406006.5389252.2584 3.2644958 1.6424255 3.2644958 3.2406006v6.7696915h.4530869v-6.7696915c0-2.057457-3.4768753-3.6308517-3.6246643-3.6972275l-.0911484-.0407028-.0920258.0407028c-.149559.0654907-3.6680222 1.6388855-3.6680222 3.6972275V95.4579391zM85.8983536 95.4579391h.4530869v-6.7696915c0-1.6008301 2.7609711-2.9839706 3.3043137-3.2406006.5389252.2584 3.2644958 1.6424255 3.2644958 3.2406006v6.7696915h.4530869v-6.7696915c0-2.057457-3.4768829-3.6308517-3.6246643-3.6972275l-.0911484-.0407028-.0920334.0407028c-.1495514.0654907-3.6671371 1.6388855-3.6671371 3.6972275V95.4579391z"/><rect width="1.095" height="24.539" x="112.638" y="70.919" fill="#2c2c34" opacity=".08"/><rect width="1.095" height="24.539" x="83.082" y="70.919" fill="#2c2c34" opacity=".08"/></g><polygon fill="#2c2c34" points="52.87 74.016 52.87 95.456 45.53 95.456 24.08 74.016" opacity=".08"/><polygon fill="#2c2c34" points="110.91 74.016 110.91 95.456 103.57 95.456 82.12 74.016" opacity=".08"/></svg>