<svg xmlns="http://www.w3.org/2000/svg" width="655.359" height="655.359" fill-rule="evenodd" clip-rule="evenodd" image-rendering="optimizeQuality" shape-rendering="geometricPrecision" text-rendering="geometricPrecision" viewBox="0 0 6.827 6.827"><defs><clipPath id="a"><path d="M3.413 0a3.413 3.413 0 1 1 0 6.827 3.413 3.413 0 0 1 0-6.827z"/></clipPath></defs><path fill="#303f9f" d="M3.413 0a3.413 3.413 0 1 1 0 6.827 3.413 3.413 0 0 1 0-6.827z"/><g fill="#29347a" clip-path="url(#a)"><path d="m5.395 2.866 3.786 3.786.003.005.003.005.003.006.002.006.001.005.001.006.001.007-.001.006-.001.006-.001.006-3.787-3.786.002-.006.001-.006V2.899l-.001-.006-.001-.006-.002-.005-.003-.006-.003-.005z"/><path d="M5.405 2.924 9.192 6.71l-.003.008-.004.007-.005.006-.005.005-.006.005-.006.004-.007.004-.007.002-3.786-3.786.007-.002.007-.004.006-.004.006-.005.005-.005.005-.007.003-.007z"/><path d="m5.363 2.965 3.786 3.786-.008.003-.01.004-.011.005-.012.005-.013.005-.015.007-.016.006-.017.007-.018.008-.018.008-.02.008-.02.009-.021.008-.021.009-.022.009-.022.009-.023.009-.022.009-.023.009-.023.008-.023.009-.023.008-.023.008-.023.008-.022.007-.022.007-.022.006-.021.006-.02.005-.02.005-.019.004-.018.003-3.786-3.786.018-.003.019-.004.02-.005.02-.005.021-.006.022-.006.022-.007.022-.007.023-.008.022-.008.023-.008.023-.009.023-.009.023-.008.023-.009.023-.009.022-.009.022-.009.021-.009.021-.009.02-.008.019-.008.019-.008.018-.008L5.278 3l.015-.007.015-.006.014-.006.012-.005.011-.004.01-.004z"/><path d="m4.752 3.186 3.786 3.786v.17L4.752 3.356z"/><path d="m4.752 3.356 3.786 3.786v.335L4.752 3.69zM4.752 3.69l3.786 3.787v.132L4.752 3.823z"/><path d="m4.752 3.823 3.786 3.786v.07L4.752 3.893z"/><path d="m4.752 3.893 3.786 3.786v.012l-.002.011-.002.01-.003.011-.004.011-.005.01-.005.011-.007.01-.007.01-.008.01-.009.01-.009.009-.011.01-.011.009-.012.009-.012.009-.014.009-.014.009-.015.008-.015.009-.016.008-.017.008-.018.008-.018.008-.018.007-.02.008-.02.007-.02.007-.022.006-.022.007-.022.006-.023.006-3.786-3.786.023-.006.022-.006.022-.007.021-.007.021-.007.02-.007.019-.007.019-.008.018-.007.018-.008.017-.008.016-.008.015-.009.015-.008.014-.009.013-.009.013-.009.012-.009.011-.01.01-.009.01-.01.009-.009.008-.01.007-.01.007-.011.005-.01.005-.011.004-.01.003-.011.002-.011.002-.011z"/><path d="m4.351 4.176 3.786 3.786-.021.006-.022.005-.022.005-.023.005-.023.005-.023.005-.024.004-.025.005-.025.004-.025.004-.026.004-.026.004-.026.003-.027.004-.027.003-.027.003-.028.003-.028.003-.029.003-.028.002-.029.003-.03.002-.029.002-.03.001-.03.002-.031.001-.03.001-.031.001-.031.001h-.032l-.031.001h-.032L3.48 4.27h.094l.031-.001.031-.001.031-.001.03-.002.03-.001.03-.002.03-.002.029-.002.029-.002.029-.002.028-.003.029-.003.027-.003.028-.003.027-.003.027-.004.026-.003.026-.004.026-.004.025-.004.025-.005.024-.004.024-.005.024-.004.023-.005.023-.005.022-.005.022-.006zM2.208 3.188l3.786 3.786-.531-.194-3.786-3.786z"/><path d="M1.677 2.994 5.463 6.78v.71L1.677 3.704z"/><path d="m3.48 4.27 3.786 3.787h-.031l-.032-.001h-.031l-.031-.001-.031-.001-.031-.001-.03-.001-.03-.002-.03-.001-.03-.002-.029-.002-.029-.003-.029-.002-.028-.003-.028-.003-.028-.003-.028-.003-.027-.003-.027-.004-.026-.003-.026-.004-.026-.004-.025-.004-.025-.004-.024-.005-.024-.004-.024-.005-.023-.005-.022-.005-.023-.005-.021-.005-.022-.006-3.786-3.786.021.005.022.006.022.005.023.005.023.005.024.004.024.005.024.004.025.005.025.004.026.004.026.004.026.003.027.004.027.003.028.003.027.003.028.003.029.003.029.002.029.002.029.002.03.002.029.002.031.001.03.002.031.001.03.001.032.001h.062zM2.609 4.176l3.786 3.786-.023-.006-.022-.006-.022-.007-.021-.006-.021-.007-.02-.007-.019-.008-.019-.007L6.21 7.9l-.018-.008-.016-.008-.016-.008-.016-.009-.015-.008-.014-.009-.013-.009-.013-.009-.012-.009-.011-.009L2.28 4.027l.011.01.012.009.013.009.013.009.014.009.015.008.015.009.016.008.017.008.018.008.018.007.019.008.019.007.02.007.021.007.021.007.022.007.022.006zM1.75 3.746l3.786 3.786.005.004.004.004-3.786-3.786-.004-.004z"/><path d="M1.759 3.754 5.545 7.54l.004.004.003.004.003.003.003.004.004.004.003.004.002.004.003.004.003.004.003.004.002.005.003.004.002.004.002.005.002.004.002.005.002.004.002.005.002.005.001.005.002.005.001.004.001.005.001.005.001.005.001.005.001.006v.005l.001.005v.01l.001.006-3.787-3.787v-.015l-.001-.006v-.005l-.001-.005-.001-.005-.001-.005-.001-.005-.001-.005-.002-.005-.001-.005-.002-.004-.001-.005-.002-.005-.002-.004-.002-.005-.002-.005-.002-.004-.003-.004-.002-.005-.003-.004-.002-.004-.003-.004-.003-.004-.003-.004-.003-.004-.003-.004-.003-.004-.003-.004-.004-.003zM1.819 3.899l3.787 3.787v.444L1.819 4.344z"/><path d="M1.819 4.344 5.606 8.13l-.001.005v.011l-.001.005v.005l-.001.005-.001.005-.001.005-.001.005-.001.005-.001.005-.002.005-.001.005-.002.004-.002.005-.002.005-.002.004-.002.005-.002.004-.002.005-.003.004-.002.004-.003.004-.003.005-.003.004-.002.004-.003.004-.004.003-.003.004-.003.004-.003.003-.004.004-3.786-3.786.003-.004.004-.003.003-.004.003-.004.003-.004.003-.004.003-.004.003-.004.003-.004.002-.004.003-.004.002-.005.003-.004.002-.004.002-.005.002-.005.002-.004.002-.005.001-.005.002-.004.001-.005.002-.005.001-.005.001-.005.001-.005.001-.005.001-.005v-.005l.001-.006v-.01z"/><path d="m1.759 4.489 3.786 3.786-.003.003-.004.004-.004.003-.003.003-.004.003-.004.003-.004.003-.004.003-.004.003-.005.002-.004.003-.004.002-.005.003-.004.002-.005.002-.004.002-.005.002-.004.002-.005.001-.005.002-.005.001-.005.002-.005.001-.005.001-.005.001-.005.001-.005.001h-.005l-.005.001H5.4L1.614 4.549h.01l.006-.001h.005l.005-.001h.005l.005-.001.005-.001.005-.001.005-.001.005-.002.005-.001.005-.002.004-.001.005-.002.005-.002.004-.002.005-.002.004-.003.005-.002.004-.002.004-.003.004-.002.004-.003.005-.003.004-.003.003-.003.004-.003.004-.003.004-.003.003-.004z"/><path d="M1.614 4.549 5.4 8.335h-.015l-.005-.001h-.005l-.005-.001-.005-.001-.005-.001-.005-.001-.005-.001-.005-.001-.005-.002-.005-.001-.004-.002-.005-.001-.005-.002-.004-.002-.005-.002-.004-.003-.005-.002-.004-.002-.004-.003-.005-.003-.004-.002-.004-.003-.004-.003-.004-.003-.004-.003-.004-.004L1.48 4.499l.004.003.004.004.004.003.004.003.004.002.004.003.004.003.005.002.004.003.005.002.004.002.005.002.004.002.005.002.004.002.005.002.005.001.005.002.005.001.005.001.004.001.005.001.005.001h.005l.005.001h.005l.006.001h.005z"/><path d="M1.58 2.853a.062.062 0 0 1 .02-.009c.19-.064 1.79-.626 1.841-.608l1.924.61a.063.063 0 0 1-.002.12c-.079.027-.422.19-.611.22V3.893c0 .12-.153.219-.401.283a3.619 3.619 0 0 1-.871.094c-.339 0-.647-.036-.87-.094-.249-.064-.402-.164-.402-.283V3.188l-.531-.194v.71a.206.206 0 0 1 .142.195v.445a.205.205 0 0 1-.35.145.205.205 0 0 1-.06-.145v-.445a.205.205 0 0 1 .143-.195v-.797l.001-.016V2.89l.004-.01v-.002a.062.062 0 0 1 .022-.025h.001z"/></g><path fill="none" d="M3.413 0a3.413 3.413 0 1 1 0 6.827 3.413 3.413 0 0 1 0-6.827z"/><path fill="#fffffe" fill-rule="nonzero" d="M1.682 2.928a.063.063 0 0 0-.125 0v.851a.063.063 0 0 0 .125 0v-.851zm1.803-.13c.339 0 .647.036.87.095.249.064.402.164.402.283v.74c0 .119-.153.218-.401.283a3.619 3.619 0 0 1-.871.094c-.339 0-.647-.036-.87-.094-.249-.065-.402-.164-.402-.283v-.74c0-.12.153-.219.401-.283.224-.059.532-.095.871-.095zm.84.215a3.496 3.496 0 0 0-.84-.09c-.33 0-.626.035-.84.09-.19.05-.307.108-.307.163v.74c0 .055.117.113.307.162.214.056.51.09.84.09.33 0 .626-.034.84-.09.19-.05.307-.107.307-.162v-.74c0-.055-.117-.113-.307-.163z"/><path fill="#fffffe" fill-rule="nonzero" d="M4.632 3.845a.063.063 0 0 0 .125 0c0-.119-.153-.218-.401-.283a3.572 3.572 0 0 0-.837-.094h-.034c-.339 0-.647.036-.87.094-.249.065-.402.164-.402.283a.063.063 0 0 0 .125 0c0-.055.117-.113.307-.162a3.44 3.44 0 0 1 .802-.09h.076c.314.003.596.036.802.09.19.05.307.107.307.162zm-1.11-.365.002.1a.062.062 0 0 0-.002-.1zm-1.903.237a.205.205 0 0 1 .205.205v.444a.205.205 0 0 1-.205.206.205.205 0 0 1-.206-.206v-.444a.205.205 0 0 1 .206-.205zm0 .125a.08.08 0 0 0-.08.08v.444a.08.08 0 0 0 .08.08.08.08 0 0 0 .08-.08v-.444a.08.08 0 0 0-.08-.08zm1.827-1.583 1.924.61-.02.059.02-.06a.063.063 0 0 1-.002.12l-.654.231a.063.063 0 0 1-.083-.05c-.014-.057-.137-.114-.326-.16a3.554 3.554 0 0 0-.82-.086 3.53 3.53 0 0 0-.828.087c-.192.05-.313.107-.319.163l-.062-.006.062.006a.063.063 0 0 1-.088.05l-.652-.237.021-.058-.021.058a.063.063 0 0 1 .006-.119l1.801-.609a.062.062 0 0 1 .041 0zm1.709.672-1.73-.548-1.618.547.435.158c.057-.082.194-.15.385-.199.223-.056.525-.09.858-.09.328 0 .627.033.85.088.191.048.33.116.39.196l.43-.152z"/></svg>